<svg xmlns="http://www.w3.org/2000/svg" width="274.002" height="142.713" viewBox="0 0 274.002 142.713">
  <g id="Group_642" data-name="Group 642" transform="translate(-213.567 -126.954)">
    <g id="Group_639" data-name="Group 639" transform="translate(309.052 126.954)">
      <path id="Path_7533" data-name="Path 7533" d="M290.926,157.465h14.182a30.5,30.5,0,1,0-56.963,18.014l26.623-45.341S284.52,146.619,290.926,157.465Z" transform="translate(-233.259 -119.112)" fill="#003176"/>
      <path id="Path_7534" data-name="Path 7534" d="M255.945,139.6c-.777,1.328-2.171,3.708-3.94,6.718h20.678c-.8-1.342-2.324-3.926-3.968-6.718Z" transform="translate(-214.176 -95.747)" fill="#003176"/>
      <path id="Path_7535" data-name="Path 7535" d="M282.613,126.954a41.515,41.515,0,1,0,41.515,41.519A41.513,41.513,0,0,0,282.613,126.954Zm0,77.436a35.919,35.919,0,1,1,35.914-35.918A35.96,35.96,0,0,1,282.613,204.39Z" transform="translate(-241.098 -126.954)" fill="#003176"/>
      <path id="Path_7536" data-name="Path 7536" d="M288.96,155.246c1.634,2.757,7.228,12.222,7.228,12.222h-39.93l10.4-17.72h12.652c-4.814-8.143-7.859-13.29-9.753-16.492-3.4,5.778-19.024,32.411-23.168,39.466a30.466,30.466,0,0,0,53.557-17.477Z" transform="translate(-228.036 -111.396)" fill="#003176"/>
    </g>
    <g id="Group_640" data-name="Group 640" transform="translate(279.607 254.098)">
      <path id="Path_7537" data-name="Path 7537" d="M232.677,173.945l5.331-.01v.277a1.258,1.258,0,0,0,.486,1.158,4.476,4.476,0,0,0,2.043.3h6.777a2.62,2.62,0,0,0,1.425-.291,1.084,1.084,0,0,0,.427-.964,1.052,1.052,0,0,0-.492-.981,5.517,5.517,0,0,0-2.119-.4l-8.477-.163c-2.119-.052-3.555-.4-4.3-1.041s-1.124-1.8-1.124-3.493a6.615,6.615,0,0,1,.3-2.154,3.21,3.21,0,0,1,.95-1.408,4.635,4.635,0,0,1,2.019-.9,21.708,21.708,0,0,1,4.058-.267h8.237a7.8,7.8,0,0,1,4.412.961,3.56,3.56,0,0,1,1.346,3.115c0,.094,0,.2,0,.305s-.021.288-.045.531h-5.2v-.059a1.394,1.394,0,0,0-.444-1.134,2.018,2.018,0,0,0-1.335-.378h-6.219a5.028,5.028,0,0,0-2.053.267.959.959,0,0,0-.5.926,1.04,1.04,0,0,0,.451.947,3.816,3.816,0,0,0,1.661.371l8.879.121q3.038.073,4.28,1.176a4.85,4.85,0,0,1,1.242,3.767,5.323,5.323,0,0,1-.458,2.449,3.776,3.776,0,0,1-1.536,1.481,5.756,5.756,0,0,1-1.935.558,28.172,28.172,0,0,1-3.538.167h-7.193q-4.427,0-5.924-.853a3.328,3.328,0,0,1-1.495-3.177c0-.09,0-.239.017-.444S232.653,174.247,232.677,173.945Z" transform="translate(-232.608 -163.613)" fill="#003176"/>
      <path id="Path_7538" data-name="Path 7538" d="M245.435,169.312H247.7l7.075-5.646h7.169l-9.555,7.505,10.814,7.7h-7.5l-8-5.747h-2.265v5.747h-5.39v-15.2h5.39Z" transform="translate(-214.251 -163.482)" fill="#003176"/>
      <path id="Path_7539" data-name="Path 7539" d="M255.789,179.182a30.6,30.6,0,0,1-4.537-.239,6.146,6.146,0,0,1-2.338-.822,3.744,3.744,0,0,1-1.471-1.71,7.222,7.222,0,0,1-.451-2.8v-4.145a8.211,8.211,0,0,1,.451-3.021,3.678,3.678,0,0,1,1.471-1.765,6.274,6.274,0,0,1,2.369-.818,29.9,29.9,0,0,1,4.481-.246h6.35a30.236,30.236,0,0,1,4.505.246,6.187,6.187,0,0,1,2.369.818,3.742,3.742,0,0,1,1.443,1.755,7.638,7.638,0,0,1,.454,2.847v4.238a7.57,7.57,0,0,1-.454,2.851,3.835,3.835,0,0,1-1.443,1.751,6.069,6.069,0,0,1-2.352.822,30.765,30.765,0,0,1-4.523.239Zm1.46-3.8h3.43a7.734,7.734,0,0,0,3.8-.617,2.547,2.547,0,0,0,.94-2.293v-2.154a2.537,2.537,0,0,0-.94-2.289,7.725,7.725,0,0,0-3.8-.621h-3.454a7.672,7.672,0,0,0-3.829.624,2.689,2.689,0,0,0-.909,2.369v2.112a2.476,2.476,0,0,0,.957,2.258A7.928,7.928,0,0,0,257.249,175.384Z" transform="translate(-197.102 -163.613)" fill="#003176"/>
      <path id="Path_7540" data-name="Path 7540" d="M268.532,163.666a22.316,22.316,0,0,1,2.879.149,6.655,6.655,0,0,1,1.821.486,3.882,3.882,0,0,1,1.949,1.79,7.371,7.371,0,0,1,.6,3.284q0,3.121-1.21,4.415t-4.1,1.29H260.389v3.787h-5.411v-15.2Zm-.191,3.787h-7.953v3.85h7.953a2.036,2.036,0,0,0,1.516-.454,2.344,2.344,0,0,0,.434-1.616,1.749,1.749,0,0,0-.465-1.353A2.144,2.144,0,0,0,268.341,167.453Z" transform="translate(-177.392 -163.482)" fill="#003176"/>
      <path id="Path_7541" data-name="Path 7541" d="M279.407,174.581a4.5,4.5,0,0,1-.375,1.817A3.721,3.721,0,0,1,278,177.806a4.889,4.889,0,0,1-2.071.94,17.4,17.4,0,0,1-3.593.284h-3.763q-4.011,0-5.49-1.009t-1.512-3.725v-2.012h5.223v.541a2.675,2.675,0,0,0,.517,1.96,3.052,3.052,0,0,0,1.987.468h2.435a2.8,2.8,0,0,0,1.8-.427,2.276,2.276,0,0,0,.492-1.727v-9.434h5.39Z" transform="translate(-161.131 -163.482)" fill="#003176"/>
      <path id="Path_7542" data-name="Path 7542" d="M287.209,167.374H273.288v2.3H286.4v3.2H273.288v2.327h14.137v3.673H267.9v-15.2h19.311Z" transform="translate(-145.502 -163.482)" fill="#003176"/>
    </g>
    <g id="Group_641" data-name="Group 641" transform="translate(213.567 220.119)">
      <path id="Path_7543" data-name="Path 7543" d="M234.065,153.895h-7.975V177.24h25.326v-5.631H234.065V153.895" transform="translate(-182.655 -153.621)" fill="#003176"/>
      <path id="Path_7544" data-name="Path 7544" d="M267.5,153.895H256.83l-10.389,8.669H243.09v-8.669h-7.978V177.24h7.978v-8.766h3.351l11.787,8.766H269.35L253.4,165.431l14.1-11.536" transform="translate(-160.389 -153.621)" fill="#003176"/>
      <path id="Path_7545" data-name="Path 7545" d="M314.246,155.75c-1.762-1.207-4.734-1.855-8.723-1.855H282.7v23.338h25.239c3.156,0,5.386-.538,6.888-1.745,1.46-1.2,2.119-3.142,2.119-5.723V161.74c0-2.681-.843-4.706-2.695-5.99m-5.2,11.98a3.7,3.7,0,0,1-1.2,2.969,6.7,6.7,0,0,1-3.718.909H290.6V159.7H303.12a8.042,8.042,0,0,1,4.46.93,3.564,3.564,0,0,1,1.471,3.049Z" transform="translate(-42.939 -153.621)" fill="#003176"/>
      <path id="Path_7546" data-name="Path 7546" d="M232.871,153.9h-5l-14.3,23.338h8.726l2.518-3.874h15.944l2.518,3.874h8.719L238.074,153.9h-5.2m0,13.835h-5l4.918-8.209.087.1,5.008,8.112Z" transform="translate(-213.567 -153.621)" fill="#003176"/>
      <path id="Path_7547" data-name="Path 7547" d="M299.381,155.467a8.872,8.872,0,0,0-3.538-1.28,39.565,39.565,0,0,0-6.683-.371H279.9a37.751,37.751,0,0,0-6.6.371,8.667,8.667,0,0,0-3.52,1.28,5.082,5.082,0,0,0-2.136,2.684,12.883,12.883,0,0,0-.656,4.717v6.354a10.961,10.961,0,0,0,.656,4.256,5.457,5.457,0,0,0,2.136,2.671,8.678,8.678,0,0,0,3.427,1.2,42.092,42.092,0,0,0,6.69.354h9.257a40.492,40.492,0,0,0,6.683-.354,8.824,8.824,0,0,0,3.538-1.2,6.793,6.793,0,0,0,2.136-2.671,14.446,14.446,0,0,0,.649-4.446V162.49a13.692,13.692,0,0,0-.649-4.339,6.193,6.193,0,0,0-2.136-2.684m-5.3,12.007a4.023,4.023,0,0,1-1.384,3.5c-.933.642-2.789.926-5.664.926h-5.019c-2.775,0-4.63-.284-5.563-.926s-1.387-1.752-1.387-3.5v-3.243c0-1.741.461-2.945,1.3-3.593.929-.645,2.778-1,5.567-1h5.105c2.875,0,4.731.35,5.664,1,.922.562,1.384,1.755,1.384,3.513Z" transform="translate(-81.694 -153.816)" fill="#003176"/>
      <path id="Path_7548" data-name="Path 7548" d="M265.147,153.9h-5l-14.21,23.338h8.629l2.6-3.874H273.03l2.5,3.874h8.83L270.346,153.9h-5.2m0,13.835h-5l5-8.209v.1l5.015,8.112Z" transform="translate(-133.671 -153.621)" fill="#003176"/>
      <rect id="Rectangle_742" data-name="Rectangle 742" width="7.987" height="23.345" transform="translate(226.311 0.274)" fill="#003176"/>
      <path id="Path_7549" data-name="Path 7549" d="M266.276,153.895h-7.993V177.24h25.338v-5.631H266.276V153.895" transform="translate(-103.196 -153.621)" fill="#003176"/>
    </g>
  </g>
</svg>
